<?xml version="1.0" standalone="no"?>
<!DOCTYPE svg PUBLIC "-//W3C//DTD SVG 20010904//EN"
 "http://www.w3.org/TR/2001/REC-SVG-20010904/DTD/svg10.dtd">
<svg version="1.0" xmlns="http://www.w3.org/2000/svg"
 width="460.000000pt" height="460.000000pt" viewBox="0 0 460.000000 460.000000"
 preserveAspectRatio="xMidYMid meet">
<metadata>
Created by potrace 1.11, written by Peter Selinger 2001-2013
</metadata>
<g transform="translate(0.000000,460.000000) scale(0.100000,-0.100000)"
fill="#000000" stroke="none">
<path d="M2825 4591 c-3 -5 -20 -12 -38 -16 -51 -10 -127 -38 -127 -47 0 -4
-7 -8 -17 -8 -9 0 -14 -3 -11 -6 3 -3 31 2 61 11 61 18 99 13 128 -16 24 -24
24 -46 -2 -111 -33 -86 -66 -144 -170 -301 -55 -82 -99 -153 -99 -158 0 -5 -4
-9 -10 -9 -5 0 -23 -21 -41 -47 -18 -25 -50 -64 -71 -86 -21 -22 -38 -46 -38
-54 0 -8 -8 -17 -18 -20 -10 -2 -22 -19 -28 -36 -7 -25 -14 -31 -31 -30 -16 2
-21 -2 -17 -12 4 -8 -1 -18 -10 -21 -9 -3 -16 -13 -16 -21 0 -8 -4 -11 -10 -8
-5 3 -30 -14 -54 -39 -24 -26 -49 -46 -55 -46 -6 0 -11 -4 -11 -8 0 -20 -138
-146 -189 -172 -59 -32 -65 -35 -204 -118 -48 -28 -90 -52 -93 -52 -3 0 -24
-13 -47 -28 -74 -50 -200 -102 -251 -102 -10 0 -24 -7 -30 -16 -6 -8 -33 -18
-60 -22 -58 -8 -70 -28 -27 -43 37 -13 38 -15 9 -39 l-23 -19 45 -48 c25 -26
48 -49 53 -51 4 -2 7 -9 7 -16 0 -19 71 -77 112 -92 34 -12 41 -11 89 12 28
14 66 40 83 58 30 31 130 106 142 106 3 0 42 24 87 53 45 30 118 73 162 97 44
23 85 46 90 50 25 18 185 100 194 100 18 0 13 -19 -10 -38 -11 -9 -29 -33 -40
-52 -11 -19 -25 -44 -32 -55 -88 -139 -159 -274 -172 -328 -4 -14 -13 -31 -21
-38 -8 -6 -14 -24 -14 -39 0 -15 -6 -33 -14 -39 -16 -13 -39 -97 -31 -111 3
-5 -1 -12 -8 -17 -7 -4 -21 -37 -31 -73 -10 -36 -25 -85 -32 -109 -8 -25 -14
-52 -14 -62 0 -9 -7 -30 -15 -45 -8 -16 -18 -45 -21 -64 -3 -19 -21 -101 -40
-182 -31 -136 -65 -336 -78 -470 -6 -61 0 -92 17 -81 6 4 7 1 3 -6 -5 -7 -14
-10 -22 -7 -8 3 -14 3 -14 0 0 -11 104 -104 116 -104 8 0 14 -4 14 -9 0 -5 13
-12 30 -16 16 -4 32 -11 35 -16 7 -11 45 -12 45 -1 0 4 16 25 36 46 33 35 39
38 57 27 20 -13 206 -29 362 -32 54 -1 87 -7 104 -18 44 -28 131 -121 131
-139 0 -28 37 -81 72 -102 57 -35 120 -24 186 32 18 15 43 28 56 28 13 0 29 7
36 15 7 8 18 15 25 15 8 0 28 25 45 55 17 30 35 55 39 55 16 0 32 55 41 143 5
51 17 157 26 237 10 80 20 226 23 325 3 99 9 185 14 192 4 6 9 64 12 130 3 65
9 204 14 308 14 298 -5 420 -68 444 -14 6 -43 25 -63 42 -36 31 -39 32 -146
33 -78 1 -113 -3 -125 -13 -14 -11 -24 -11 -64 3 -25 9 -62 16 -80 16 -26 0
-33 4 -33 20 0 11 5 20 10 20 6 0 10 7 10 16 0 23 187 204 246 239 27 15 51
31 54 34 15 18 106 51 138 51 21 0 42 4 48 8 9 9 40 18 151 46 34 9 101 36
149 61 49 25 93 45 99 45 5 0 23 12 39 26 38 34 48 107 20 150 -32 48 -111
124 -131 124 -11 0 -23 4 -29 10 -12 12 -89 30 -157 37 -38 4 -53 1 -70 -14
-71 -62 -231 -144 -332 -170 -39 -10 -72 -21 -75 -24 -3 -3 -23 -12 -45 -19
-36 -11 -106 -39 -193 -77 -41 -18 -61 -13 -38 9 9 9 16 19 16 22 0 10 88 116
134 162 23 23 64 72 91 109 28 37 84 104 126 149 42 44 93 100 114 124 21 23
60 53 87 66 28 13 56 35 63 50 34 65 27 165 -16 220 -39 50 -91 66 -210 66
-59 0 -110 -4 -114 -9z m-325 -931 c0 -5 -4 -10 -10 -10 -5 0 -10 5 -10 10 0
6 5 10 10 10 6 0 10 -4 10 -10z m-252 -130 c-36 -42 -55 -54 -63 -40 -7 12 74
92 86 84 5 -3 -5 -23 -23 -44z m-94 -87 c-30 -22 -39 -15 -13 13 15 16 25 21
28 13 2 -7 -4 -18 -15 -26z m720 -697 c24 -15 26 -22 27 -99 0 -45 2 -91 4
-101 2 -11 1 -32 -2 -47 -5 -26 -7 -27 -32 -16 -14 6 -48 28 -76 48 -80 58
-113 72 -159 65 -93 -13 -150 -26 -160 -36 -10 -10 -126 -14 -126 -4 0 30 166
164 204 164 6 0 16 4 22 10 37 37 249 49 298 16z m26 -493 c-1 -73 -9 -186
-24 -323 -2 -14 -4 -35 -4 -48 -2 -22 -3 -22 -32 -7 -16 9 -30 22 -30 30 0 8
-11 27 -25 42 -18 21 -27 25 -33 15 -10 -15 -38 -7 -46 13 -11 30 -92 54 -190
56 -68 2 -81 10 -46 29 11 6 20 9 20 6 0 -2 35 14 78 36 149 78 184 99 204
118 8 8 31 29 50 46 20 18 41 41 47 53 22 41 31 21 31 -66z m-628 36 c22 -12
114 -16 125 -6 6 7 32 -21 33 -35 0 -8 -63 -40 -76 -37 -23 4 -51 -14 -47 -29
4 -17 -30 -62 -47 -62 -5 0 -10 -12 -12 -27 -2 -20 -9 -29 -25 -31 -14 -2 -23
2 -23 10 0 8 -9 20 -20 28 -26 19 -27 78 -1 123 47 84 52 88 93 66z m178 -183
c0 -8 -4 -18 -10 -21 -5 -3 -10 -4 -10 -1 0 2 -3 11 -6 20 -4 11 -1 16 10 16
9 0 16 -6 16 -14z m61 -116 c5 0 9 -4 9 -10 0 -12 -47 -13 -54 -1 -8 12 6 22
22 16 7 -3 18 -5 23 -5z m279 -101 c0 -6 -4 -7 -10 -4 -5 3 -10 11 -10 16 0 6
5 7 10 4 6 -3 10 -11 10 -16z m73 -111 c-3 -29 -11 -88 -19 -132 -8 -43 -14
-91 -14 -107 0 -16 -4 -37 -9 -47 -5 -9 -14 -29 -21 -43 -10 -21 -21 -28 -59
-33 -57 -8 -55 -8 -114 0 -26 4 -50 11 -53 15 -3 5 -38 9 -79 9 -68 0 -73 1
-68 20 3 13 17 22 39 26 19 3 38 12 42 18 4 7 25 21 47 32 176 90 178 91 205
145 10 19 32 50 49 68 17 18 31 41 31 50 0 18 8 31 20 31 4 0 5 -24 3 -52z
m-420 -6 c16 -2 17 -7 11 -34 -9 -43 -49 -90 -90 -107 -19 -7 -34 -19 -34 -27
0 -7 -9 -19 -20 -27 -11 -7 -21 -24 -22 -38 -4 -37 -39 -50 -100 -39 -105 20
-129 51 -129 167 -1 106 -7 101 138 102 70 1 128 3 130 5 4 3 60 2 116 -2z
m-31 -300 c-7 -2 -12 -10 -12 -18 0 -8 -4 -14 -10 -14 -5 0 -10 9 -10 19 0 20
18 32 35 23 5 -3 4 -7 -3 -10z m172 -73 c17 -15 -19 -20 -65 -9 -24 7 -62 16
-84 20 -28 6 -13 7 50 4 50 -3 94 -10 99 -15z"/>
<path d="M2248 2163 c-10 -2 -18 -13 -18 -24 0 -16 3 -18 18 -10 10 5 24 17
32 25 13 17 6 19 -32 9z"/>
<path d="M4595 2300 c0 -1268 1 -1786 2 -1152 2 633 2 1671 0 2305 -1 633 -2
115 -2 -1153z"/>
<path d="M2245 4245 c-28 -25 -72 -61 -100 -80 -27 -19 -61 -45 -75 -58 -14
-13 -38 -27 -53 -31 l-28 -7 21 21 c23 23 25 36 8 43 -10 4 -10 6 0 6 6 1 12
8 12 17 0 9 21 35 48 59 26 25 41 44 34 45 -7 0 -41 -28 -76 -62 -35 -35 -85
-81 -111 -103 -26 -22 -66 -59 -89 -82 -48 -49 -59 -52 -73 -20 -13 28 -62 87
-73 87 -4 0 -10 -26 -12 -58 -6 -62 -52 -168 -94 -217 -13 -15 -24 -33 -24
-39 -1 -16 -39 -58 -82 -89 -29 -22 -38 -35 -38 -58 0 -30 34 -93 63 -118 9
-7 29 -38 44 -69 16 -30 44 -73 64 -94 30 -32 42 -38 77 -38 35 0 45 5 72 38
17 20 33 48 37 62 3 14 12 34 19 45 8 11 14 30 14 42 0 13 20 62 44 111 24 48
54 110 66 137 33 74 69 147 83 170 6 11 19 31 28 45 8 14 23 46 32 71 10 25
30 55 47 67 16 12 36 35 44 50 19 36 67 92 81 93 12 0 60 59 48 59 -4 0 -31
-20 -58 -45z"/>
<path d="M400 3819 c0 -17 -7 -46 -16 -65 -20 -42 -15 -125 9 -172 9 -17 24
-44 32 -59 38 -73 65 -92 170 -119 55 -14 105 -30 111 -35 18 -15 24 -89 10
-128 -7 -20 -17 -45 -21 -56 -4 -11 -3 -15 2 -10 16 21 120 84 149 91 16 4 40
15 54 24 14 10 35 20 47 24 14 5 36 32 58 74 19 36 35 69 35 73 0 14 -93 119
-105 119 -7 0 -25 10 -40 22 -15 12 -46 25 -69 29 -205 38 -297 81 -361 170
-41 57 -65 64 -65 18z"/>
<path d="M600 2835 c-6 -8 -9 -19 -5 -25 4 -6 -12 -40 -35 -75 -60 -92 -69
-125 -69 -245 0 -98 24 -259 42 -276 4 -4 7 -14 7 -23 0 -8 16 -51 36 -96 40
-89 40 -89 86 -165 19 -30 40 -71 47 -90 7 -19 20 -49 27 -67 8 -17 14 -34 14
-37 0 -4 25 -61 55 -127 30 -66 55 -130 55 -141 0 -12 7 -50 16 -85 15 -59 15
-69 -1 -133 -22 -89 -57 -142 -112 -170 -27 -13 -109 -32 -218 -50 -153 -26
-178 -28 -207 -16 -38 16 -58 11 -58 -13 0 -9 -5 -22 -11 -28 -14 -14 -14
-152 0 -166 6 -6 11 -19 11 -29 0 -10 7 -21 15 -24 8 -4 15 -11 15 -18 0 -13
66 -76 80 -76 5 0 25 -7 43 -16 31 -15 36 -15 65 0 18 9 32 21 32 27 0 18 45
29 180 45 25 3 54 9 65 14 69 28 98 33 203 35 64 1 131 -2 147 -7 45 -14 168
-28 275 -33 160 -7 231 -14 366 -35 71 -11 165 -25 209 -30 44 -4 102 -18 128
-29 27 -12 53 -21 58 -21 20 0 220 -98 327 -160 63 -36 126 -72 140 -80 29
-16 322 -157 407 -194 28 -13 71 -32 98 -44 26 -12 56 -22 66 -22 10 0 34 -7
53 -14 19 -8 94 -20 166 -27 l131 -11 32 26 c17 14 34 26 39 26 5 0 20 11 34
25 25 25 28 26 139 45 38 6 87 17 110 24 126 40 187 56 232 60 71 7 271 77
287 100 13 19 -4 27 -47 21 -46 -7 -71 8 -34 20 46 15 -12 27 -147 32 -114 4
-134 2 -134 -11 0 -10 9 -14 28 -13 18 1 27 -3 27 -13 0 -9 -8 -14 -20 -12
-11 2 -36 3 -55 3 -19 -1 -42 3 -50 9 -12 7 -8 11 18 16 49 10 38 24 -20 24
-57 1 -146 12 -243 30 -33 7 -74 11 -91 11 -30 -1 -113 17 -164 37 -14 5 -77
12 -140 16 -79 5 -127 13 -156 27 -24 10 -46 19 -51 19 -13 0 -115 41 -164 66
-26 13 -53 24 -61 24 -8 0 -36 11 -64 24 -105 52 -184 86 -196 86 -7 0 -35 11
-62 25 -27 14 -57 25 -65 25 -9 0 -26 7 -37 15 -29 19 -93 42 -189 66 -44 10
-102 26 -130 33 -27 8 -77 20 -110 27 -33 6 -85 18 -115 26 -53 13 -180 32
-265 39 -22 2 -184 6 -360 9 -176 4 -327 8 -335 11 -10 4 -8 8 9 17 41 20 64
63 73 130 4 34 12 96 18 137 12 84 5 188 -17 270 -18 69 -40 160 -53 222 -5
27 -19 68 -30 93 -11 25 -25 57 -31 72 -9 25 -116 191 -130 203 -17 15 -41 83
-49 140 -11 90 -53 194 -106 265 -51 68 -59 91 -50 140 8 40 21 51 41 35 12
-10 15 -9 15 7 0 48 -53 80 -80 48z m3725 -2493 c-7 -8 -35 7 -35 18 0 6 7 6
20 -2 10 -7 17 -14 15 -16z m-148 -9 c6 -17 -56 -31 -92 -21 -16 5 -56 6 -87
2 -39 -4 -58 -2 -58 5 0 7 22 11 54 11 30 0 58 5 61 10 9 15 117 8 122 -7z"/>
</g>
</svg>
